HIERARCHY
ROOT pelvis
{
  OFFSET 0 100 0
  CHANNELS 6 Xposition Yposition Zposition Zrotation Xrotation Yrotation
  JOINT pelvis_right_femur
  {
    OFFSET -10.78128 -3.44521 -0.5502486
    CHANNELS 3 Zrotation Xrotation Yrotation
    JOINT right_femur_tibia
    {
      OFFSET -0.8047443 -44.0398 -0.1307829
      CHANNELS 3 Zrotation Xrotation Yrotation
      JOINT right_tibia_foot
      {
        OFFSET 3.006224 -47.83518 -5
        CHANNELS 3 Zrotation Xrotation Yrotation
        End Site
        {
          OFFSET 0 -5 15
        }
      }
    }
  }
  JOINT pelvis_left_femur
  {
    OFFSET 10.78128 -3.44521 -0.5502486
    CHANNELS 3 Zrotation Xrotation Yrotation
    JOINT left_femur_tibia
    {
      OFFSET 0.8047443 -44.0398 -0.1307829
      CHANNELS 3 Zrotation Xrotation Yrotation
      JOINT left_tibia_foot
      {
        OFFSET -4.370144 -48.10324 -4.275266
        CHANNELS 3 Zrotation Xrotation Yrotation
        End Site
        {
          OFFSET 0 -5 15
        }
      }
    }
  }
  JOINT pelvis_spine1
  {
    OFFSET 0 6.468898 -3.129235
    CHANNELS 3 Zrotation Xrotation Yrotation
    JOINT spine1
    {
      OFFSET 0 23.15396 4.99043
      CHANNELS 3 Zrotation Xrotation Yrotation
      JOINT spine2
      {
        OFFSET 0 20.79997 -5.064912
        CHANNELS 3 Zrotation Xrotation Yrotation
        JOINT neck
        {
          OFFSET 0 14.38658 9.616178
          CHANNELS 3 Zrotation Xrotation Yrotation
          End Site
          {
            OFFSET 0 20 0
          }
        }
      }
      JOINT right_manubrium
      {
        OFFSET -5.722621 16.35077 3.967754
        CHANNELS 3 Zrotation Xrotation Yrotation
        JOINT right_clavicle
        {
          OFFSET -13.16364 1.694482 -4.693211
          CHANNELS 3 Zrotation Xrotation Yrotation
          JOINT right_humerus
          {
            OFFSET -28.5034 -0.3100689 -2.792744
            CHANNELS 3 Zrotation Xrotation Yrotation
            JOINT right_radius
            {
              OFFSET -25.15693 0.02248979 -1.271978
              CHANNELS 3 Zrotation Xrotation Yrotation
              End Site
              {
                OFFSET -15 0 0
              }
            }
          }
        }
      }
      JOINT left_manubrium
      {
        OFFSET 5.722621 16.35077 3.967754
        CHANNELS 3 Zrotation Xrotation Yrotation
        JOINT left_clavicle
        {
          OFFSET 13.16364 1.694482 -4.693211
          CHANNELS 3 Zrotation Xrotation Yrotation
          JOINT left_humerus
          {
            OFFSET 29.39168 -1.063119 -2.237045
            CHANNELS 3 Zrotation Xrotation Yrotation
            JOINT left_radius
            {
              OFFSET 24.59957 -0.9528479 0.9047498
              CHANNELS 3 Zrotation Xrotation Yrotation
              End Site
              {
                OFFSET 15 -0 -0
              }
            }
          }
        }
      }
    }
  }
}
MOTION
Frames: 9
Frame Time: 0.0416666666667
-317.8016 99.4061 3004.086 -2.901475 -10.12235 -19.50587 4.399969 13.38652 3.417808 -0 16.23314 -0 -0.7030371 -15.17914 -3.845846 0.738729 -18.92146 -4.833368 -0 32.231 -0 -7.242716 -8.543083 20.49283 -1.768843 -2.699635 6.970722 1.981189 12.8482 -7.55107 1.806956 21.93012 2.031629 -0.9824511 -23.2117 7.299003 -0.8098527 -27.52692 12.57723 88.9481 28.81875 -12.22087 -0 0 23.89255 -14.29035 7.847478 7.200138 3.073848 -18.98709 -1.493417 -90.75498 12.37134 26.76874 0 0 -4.803684 16.28115 14.40752 -10.87647
-319.2602 98.55703 3010.145 -2.833918 -9.408483 -20.21948 3.82869 15.48603 3.373689 -0 17.8935 -0 0.3347775 -15.985 -3.166505 0.8489375 -20.61997 -4.870811 -0 26.58843 -0 -7.141104 -8.251371 20.30197 -1.611924 -2.623429 7.210108 1.80857 13.07481 -7.346909 1.799601 21.96583 1.747784 -1.128747 -22.62795 6.975795 -0.9422428 -28.02539 12.71359 88.60105 28.07606 -11.27904 -0 0 24.66018 -14.89029 8.040956 7.933578 2.71034 -18.82227 -1.794399 -90.8937 12.36305 27.64361 0 0 -4.398524 15.34758 14.38051 -9.854745
-320.6986 97.77953 3016.529 -2.597811 -8.961774 -20.80844 2.920375 16.94649 3.310736 -0 21.01806 -0 1.329469 -15.56668 -2.688404 0.2383673 -21.06173 -5.479434 -0 23.3793 -0 -7.16398 -8.232059 19.97792 -1.439 -2.55235 7.369113 1.684561 13.25282 -7.218348 1.791342 21.94594 1.577063 -1.203355 -22.2366 6.737651 -1.098293 -28.33733 12.80873 88.45398 27.37665 -10.71573 -0 0 25.09173 -15.42529 8.234041 8.508206 2.474103 -18.76228 -2.046713 -90.9601 12.36141 28.18283 0 0 -4.338563 14.56451 14.30705 -8.977148
-322.136 97.27118 3023.183 -2.212857 -8.948871 -21.18252 1.788338 17.53565 3.176229 -0 25.96748 -0 2.179992 -13.68424 -2.519486 -1.014229 -20.23326 -6.557797 -0 22.53156 -0 -7.207299 -8.63726 19.58668 -1.271202 -2.491592 7.436322 1.618962 13.378 -7.171157 1.778582 21.89058 1.526295 -1.210277 -22.04646 6.59377 -1.263882 -28.43734 12.86011 88.50177 26.75649 -10.55661 -0 0 25.14603 -15.85572 8.399333 8.894357 2.364427 -18.80592 -2.247446 -90.93919 12.37368 28.34468 0 0 -4.610366 13.97637 14.19148 -8.299522
-323.5708 97.19181 3029.977 -1.767504 -9.322743 -21.23049 0.6915352 16.86355 2.969739 -0 32.71958 -0 2.902023 -10.57694 -2.767207 -2.569655 -18.16904 -7.74335 -0 23.24069 -0 -7.060476 -9.406826 19.12215 -1.121914 -2.44295 7.404721 1.617624 13.44755 -7.209226 1.759087 21.81429 1.596698 -1.153131 -22.05829 6.547664 -1.430825 -28.3102 12.86815 88.73962 26.24178 -10.81256 -0 0 24.79615 -16.15656 8.518083 9.073006 2.378819 -18.95263 -2.395296 -90.81582 12.39795 28.09967 0 0 -5.204732 13.61478 14.04 -7.866352
-324.9738 97.61398 3036.723 -1.38143 -9.83971 -20.87954 -0.1021449 14.54516 2.773583 -0 40.52032 -0 3.564786 -7.026227 -3.503555 -3.995946 -14.97157 -8.627102 -0 24.27111 -0 -6.602274 -10.34747 18.53405 -0.9959765 -2.404931 7.271683 1.682243 13.45918 -7.333862 1.73221 21.72317 1.786019 -1.032833 -22.26662 6.597845 -1.593606 -27.94797 12.83555 89.16041 25.84659 -11.48047 -0 0 24.02937 -16.31768 8.583007 9.03847 2.515702 -19.20304 -2.48935 -90.5783 12.42786 27.43001 0 0 -6.122668 13.49292 13.85752 -7.699385
-326.3019 98.47004 3043.226 -1.155523 -10.21047 -20.15061 -0.4659998 10.46274 2.704095 -0 47.82731 -0 4.137547 -4.068661 -4.682701 -4.986464 -10.85062 -9.020423 -0 24.50387 -0 -5.936008 -11.29741 17.79617 -0.8921295 -2.373935 7.040181 1.809947 13.41014 -7.542179 1.699408 21.61541 2.087218 -0.8486598 -22.6593 6.738461 -1.745424 -27.35344 12.76691 89.74856 25.57975 -12.53639 -0 0 22.85726 -16.33956 8.597532 8.797835 2.774089 -19.55541 -2.526373 -90.22409 12.4544 26.33814 0 0 -7.362811 13.60809 13.6488 -7.798604
-327.5271 99.54415 3049.359 -1.122536 -10.27424 -19.15628 -0.4604874 4.93927 2.785221 -0 52.78345 -0 4.432167 -2.488294 -6.075352 -5.467509 -6.157844 -9.042521 -0 23.43712 -0 -5.317148 -12.24098 16.94265 -0.8066125 -2.346241 6.721383 1.992701 13.29718 -7.825046 1.66472 21.48408 2.484638 -0.6021533 -23.21566 6.959738 -1.875802 -26.55019 12.66856 90.47372 25.45701 -13.92397 -0 0 21.33438 -16.22755 8.573562 8.36855 3.150271 -19.99929 -2.498047 -89.76728 12.46391 24.86521 0 0 -8.89422 13.94942 13.42369 -8.152601
-328.6601 100.5372 3055.108 -1.215901 -10.05045 -18.04266 -0.2697513 -1.347423 2.873721 -0 54.01742 -0 4.277004 -2.47536 -7.361618 -5.554079 -1.339973 -8.961262 -0 21.2917 -0 -4.965003 -13.29452 16.03391 -0.7356986 -2.319981 6.336864 2.217127 13.11822 -8.165536 1.634536 21.32006 2.952303 -0.3004291 -23.9067 7.24871 -1.970851 -25.59023 12.54815 91.28803 25.50643 -15.54845 -0 0 19.57028 -15.98951 8.529171 7.777084 3.634237 -20.51055 -2.390703 -89.24417 12.43821 23.10619 0 0 -10.63521 14.50219 13.19981 -8.745231
